<svg width="34" height="36" viewBox="0 0 34 36" fill="none" xmlns="http://www.w3.org/2000/svg">
<g filter="url(#filter0_df_1031_28428)">
<circle cx="17" cy="14" r="4" fill="url(#paint0_linear_1031_28428)"/>
</g>
<g clip-path="url(#clip0_1031_28428)" filter="url(#filter1_d_1031_28428)">
<path d="M11.3889 14.5C14.764 14.5 17.5 11.764 17.5 8.38889C17.5 11.764 20.236 14.5 23.6111 14.5C20.236 14.5 17.5 17.236 17.5 20.6111C17.5 17.236 14.764 14.5 11.3889 14.5Z" fill="#FFFAF1"/>
<path fill-rule="evenodd" clip-rule="evenodd" d="M17.1795 8.38889V2H17.8205V8.38889C17.8205 11.5869 20.4131 14.1795 23.6111 14.1795H30V14.8205H23.6111C20.4131 14.8205 17.8205 17.4131 17.8205 20.6111V27H17.1795V20.6111C17.1795 17.4131 14.5869 14.8205 11.3889 14.8205H5V14.1795H11.3889C14.5869 14.1795 17.1795 11.5869 17.1795 8.38889ZM17.5 10.3995C16.8638 12.3343 15.3343 13.8638 13.3995 14.5C15.3343 15.1362 16.8638 16.6657 17.5 18.6005C18.1362 16.6657 19.6657 15.1362 21.6005 14.5C19.6657 13.8638 18.1362 12.3343 17.5 10.3995Z" fill="#FFFAF1"/>
</g>
<defs>
<filter id="filter0_df_1031_28428" x="3.2" y="0.2" width="27.6" height="27.6" filterUnits="userSpaceOnUse" color-interpolation-filters="sRGB">
<feFlood flood-opacity="0" result="BackgroundImageFix"/>
<feColorMatrix in="SourceAlpha" type="matrix" values="0 0 0 0 0 0 0 0 0 0 0 0 0 0 0 0 0 0 127 0" result="hardAlpha"/>
<feMorphology radius="2" operator="dilate" in="SourceAlpha" result="effect1_dropShadow_1031_28428"/>
<feOffset/>
<feComposite in2="hardAlpha" operator="out"/>
<feColorMatrix type="matrix" values="0 0 0 0 0.737955 0 0 0 0 0.302814 0 0 0 0 0.989879 0 0 0 1 0"/>
<feBlend mode="normal" in2="BackgroundImageFix" result="effect1_dropShadow_1031_28428"/>
<feBlend mode="normal" in="SourceGraphic" in2="effect1_dropShadow_1031_28428" result="shape"/>
<feGaussianBlur stdDeviation="4.9" result="effect2_foregroundBlur_1031_28428"/>
</filter>
<filter id="filter1_d_1031_28428" x="0.2" y="2" width="33.6" height="33.6" filterUnits="userSpaceOnUse" color-interpolation-filters="sRGB">
<feFlood flood-opacity="0" result="BackgroundImageFix"/>
<feColorMatrix in="SourceAlpha" type="matrix" values="0 0 0 0 0 0 0 0 0 0 0 0 0 0 0 0 0 0 127 0" result="hardAlpha"/>
<feOffset dy="4.8"/>
<feGaussianBlur stdDeviation="2.4"/>
<feComposite in2="hardAlpha" operator="out"/>
<feColorMatrix type="matrix" values="0 0 0 0 0 0 0 0 0 0 0 0 0 0 0 0 0 0 0.25 0"/>
<feBlend mode="normal" in2="BackgroundImageFix" result="effect1_dropShadow_1031_28428"/>
<feBlend mode="normal" in="SourceGraphic" in2="effect1_dropShadow_1031_28428" result="shape"/>
</filter>
<linearGradient id="paint0_linear_1031_28428" x1="13" y1="10" x2="21.5077" y2="10.4427" gradientUnits="userSpaceOnUse">
<stop stop-color="#8A41FF"/>
<stop offset="0.145217" stop-color="#BC4DFC"/>
<stop offset="1" stop-color="#2898ED"/>
</linearGradient>
<clipPath id="clip0_1031_28428">
<rect width="24" height="24" fill="white" transform="translate(5 2)"/>
</clipPath>
</defs>
</svg>